<svg width="1200" height="960" viewBox="0 0 1200 960" fill="none" xmlns="http://www.w3.org/2000/svg">
  <rect width="1200" height="960" rx="40" fill="#FFFDF8"/>
  <rect x="72" y="72" width="1056" height="816" rx="32" fill="white" stroke="#E7E2D8" stroke-width="2"/>
  <rect x="116" y="126" width="368" height="36" rx="18" fill="#FDE68A"/>
  <rect x="116" y="186" width="520" height="24" rx="12" fill="#E7E2D8"/>
  <rect x="116" y="224" width="452" height="24" rx="12" fill="#EFE7D6"/>
  <rect x="116" y="290" width="296" height="180" rx="24" fill="#1C1917"/>
  <rect x="436" y="290" width="300" height="180" rx="24" fill="#FFF8E7" stroke="#E7E2D8" stroke-width="2"/>
  <rect x="760" y="290" width="324" height="180" rx="24" fill="#F8FAFC" stroke="#E7E2D8" stroke-width="2"/>
  <rect x="116" y="510" width="968" height="280" rx="28" fill="#FAFAF9" stroke="#E7E2D8" stroke-width="2"/>
  <rect x="156" y="560" width="240" height="180" rx="20" fill="#F59E0B"/>
  <rect x="424" y="560" width="240" height="180" rx="20" fill="#FDE68A"/>
  <rect x="692" y="560" width="240" height="180" rx="20" fill="#1C1917"/>
  <circle cx="276" cy="640" r="56" fill="#FFF7ED"/>
  <path d="M255 640H297" stroke="#F59E0B" stroke-width="16" stroke-linecap="round"/>
  <path d="M276 619V661" stroke="#F59E0B" stroke-width="16" stroke-linecap="round"/>
  <rect x="466" y="608" width="160" height="24" rx="12" fill="#B45309"/>
  <rect x="466" y="644" width="120" height="16" rx="8" fill="#D97706"/>
  <rect x="730" y="608" width="160" height="24" rx="12" fill="#FDE68A"/>
  <rect x="730" y="644" width="118" height="16" rx="8" fill="#FCD34D"/>
</svg>
